<mxfile host="app.diagrams.net" modified="2023-07-25T13:46:59.895Z" agent="Mozilla/5.0 (Windows NT 10.0; Win64; x64) AppleWebKit/537.36 (KHTML, like Gecko) Chrome/114.0.0.0 Safari/537.36" etag="4SCqS06ALYzFRL8wjCIx" version="21.6.5" type="device" pages="7">
  <diagram id="R2lEEEUBdFMjLlhIrx00" name="Page-1">
    <mxGraphModel dx="1050" dy="581" grid="1" gridSize="10" guides="1" tooltips="1" connect="1" arrows="1" fold="1" page="1" pageScale="1" pageWidth="850" pageHeight="1100" math="0" shadow="0" extFonts="Permanent Marker^https://fonts.googleapis.com/css?family=Permanent+Marker">
      <root>
        <mxCell id="0" />
        <mxCell id="1" parent="0" />
        <mxCell id="PiD7-msu0m9Xkoi4xHgd-5" style="edgeStyle=orthogonalEdgeStyle;rounded=0;orthogonalLoop=1;jettySize=auto;html=1;entryX=0.5;entryY=0;entryDx=0;entryDy=0;endArrow=none;endFill=0;" edge="1" parent="1" source="PiD7-msu0m9Xkoi4xHgd-1" target="PiD7-msu0m9Xkoi4xHgd-3">
          <mxGeometry relative="1" as="geometry" />
        </mxCell>
        <mxCell id="PiD7-msu0m9Xkoi4xHgd-1" value="&lt;font style=&quot;font-size: 24px;&quot;&gt;Filme&lt;/font&gt;" style="rounded=0;whiteSpace=wrap;html=1;" vertex="1" parent="1">
          <mxGeometry x="350" y="170" width="120" height="60" as="geometry" />
        </mxCell>
        <mxCell id="PiD7-msu0m9Xkoi4xHgd-2" value="&lt;font style=&quot;font-size: 24px;&quot;&gt;Gênero&lt;/font&gt;" style="rounded=0;whiteSpace=wrap;html=1;" vertex="1" parent="1">
          <mxGeometry x="350" y="410" width="120" height="60" as="geometry" />
        </mxCell>
        <mxCell id="PiD7-msu0m9Xkoi4xHgd-6" style="edgeStyle=orthogonalEdgeStyle;rounded=0;orthogonalLoop=1;jettySize=auto;html=1;entryX=0.5;entryY=0;entryDx=0;entryDy=0;endArrow=none;endFill=0;" edge="1" parent="1" source="PiD7-msu0m9Xkoi4xHgd-3" target="PiD7-msu0m9Xkoi4xHgd-2">
          <mxGeometry relative="1" as="geometry" />
        </mxCell>
        <mxCell id="PiD7-msu0m9Xkoi4xHgd-3" value="&lt;font style=&quot;font-size: 18px;&quot;&gt;possui&lt;/font&gt;" style="rhombus;whiteSpace=wrap;html=1;" vertex="1" parent="1">
          <mxGeometry x="355" y="280" width="110" height="80" as="geometry" />
        </mxCell>
        <mxCell id="PiD7-msu0m9Xkoi4xHgd-7" value="&lt;font style=&quot;font-size: 18px;&quot;&gt;N&lt;/font&gt;" style="text;html=1;strokeColor=none;fillColor=none;align=center;verticalAlign=middle;whiteSpace=wrap;rounded=0;" vertex="1" parent="1">
          <mxGeometry x="415" y="240" width="30" height="20" as="geometry" />
        </mxCell>
        <mxCell id="PiD7-msu0m9Xkoi4xHgd-8" value="&lt;font style=&quot;font-size: 18px;&quot;&gt;1&lt;/font&gt;" style="text;html=1;strokeColor=none;fillColor=none;align=center;verticalAlign=middle;whiteSpace=wrap;rounded=0;" vertex="1" parent="1">
          <mxGeometry x="415" y="370" width="35" height="30" as="geometry" />
        </mxCell>
        <mxCell id="PiD7-msu0m9Xkoi4xHgd-9" value="&lt;font style=&quot;font-size: 18px;&quot;&gt;1-&lt;/font&gt;" style="text;html=1;strokeColor=none;fillColor=none;align=center;verticalAlign=middle;whiteSpace=wrap;rounded=0;" vertex="1" parent="1">
          <mxGeometry x="290" y="130" width="60" height="30" as="geometry" />
        </mxCell>
      </root>
    </mxGraphModel>
  </diagram>
  <diagram id="Ed6CkCQQ0xnpIoQit0K1" name="Página-2">
    <mxGraphModel dx="1050" dy="581" grid="1" gridSize="10" guides="1" tooltips="1" connect="1" arrows="1" fold="1" page="1" pageScale="1" pageWidth="827" pageHeight="1169" math="0" shadow="0">
      <root>
        <mxCell id="0" />
        <mxCell id="1" parent="0" />
        <mxCell id="ku6dOrrAnNPvEK8YflBV-1" value="&lt;font style=&quot;font-size: 18px;&quot;&gt;2-&lt;/font&gt;" style="text;html=1;strokeColor=none;fillColor=none;align=center;verticalAlign=middle;whiteSpace=wrap;rounded=0;" vertex="1" parent="1">
          <mxGeometry x="60" y="40" width="60" height="30" as="geometry" />
        </mxCell>
        <mxCell id="ku6dOrrAnNPvEK8YflBV-2" value="&lt;font style=&quot;font-size: 18px;&quot;&gt;Pessoa&lt;/font&gt;" style="rounded=0;whiteSpace=wrap;html=1;" vertex="1" parent="1">
          <mxGeometry x="350" y="270" width="120" height="60" as="geometry" />
        </mxCell>
        <mxCell id="ku6dOrrAnNPvEK8YflBV-10" style="edgeStyle=orthogonalEdgeStyle;rounded=0;orthogonalLoop=1;jettySize=auto;html=1;endArrow=none;endFill=0;" edge="1" parent="1" source="ku6dOrrAnNPvEK8YflBV-3">
          <mxGeometry relative="1" as="geometry">
            <mxPoint x="410" y="330" as="targetPoint" />
          </mxGeometry>
        </mxCell>
        <mxCell id="ku6dOrrAnNPvEK8YflBV-11" style="edgeStyle=orthogonalEdgeStyle;rounded=0;orthogonalLoop=1;jettySize=auto;html=1;entryX=0.5;entryY=0;entryDx=0;entryDy=0;endArrow=none;endFill=0;" edge="1" parent="1" source="ku6dOrrAnNPvEK8YflBV-3" target="ku6dOrrAnNPvEK8YflBV-4">
          <mxGeometry relative="1" as="geometry" />
        </mxCell>
        <mxCell id="ku6dOrrAnNPvEK8YflBV-3" value="&lt;font style=&quot;font-size: 18px;&quot;&gt;possui&lt;/font&gt;" style="rhombus;whiteSpace=wrap;html=1;" vertex="1" parent="1">
          <mxGeometry x="362" y="360" width="96" height="80" as="geometry" />
        </mxCell>
        <mxCell id="ku6dOrrAnNPvEK8YflBV-4" value="&lt;font style=&quot;font-size: 18px;&quot;&gt;Email&lt;/font&gt;" style="rounded=0;whiteSpace=wrap;html=1;" vertex="1" parent="1">
          <mxGeometry x="350" y="460" width="120" height="60" as="geometry" />
        </mxCell>
        <mxCell id="ku6dOrrAnNPvEK8YflBV-5" value="&lt;font style=&quot;font-size: 18px;&quot;&gt;Telefones&lt;/font&gt;" style="rounded=0;whiteSpace=wrap;html=1;" vertex="1" parent="1">
          <mxGeometry x="660" y="270" width="120" height="60" as="geometry" />
        </mxCell>
        <mxCell id="ku6dOrrAnNPvEK8YflBV-8" style="edgeStyle=orthogonalEdgeStyle;rounded=0;orthogonalLoop=1;jettySize=auto;html=1;entryX=1;entryY=0.5;entryDx=0;entryDy=0;endArrow=none;endFill=0;" edge="1" parent="1" source="ku6dOrrAnNPvEK8YflBV-7" target="ku6dOrrAnNPvEK8YflBV-2">
          <mxGeometry relative="1" as="geometry" />
        </mxCell>
        <mxCell id="ku6dOrrAnNPvEK8YflBV-9" style="edgeStyle=orthogonalEdgeStyle;rounded=0;orthogonalLoop=1;jettySize=auto;html=1;entryX=0;entryY=0.5;entryDx=0;entryDy=0;endArrow=none;endFill=0;" edge="1" parent="1" source="ku6dOrrAnNPvEK8YflBV-7" target="ku6dOrrAnNPvEK8YflBV-5">
          <mxGeometry relative="1" as="geometry" />
        </mxCell>
        <mxCell id="ku6dOrrAnNPvEK8YflBV-7" value="&lt;font style=&quot;font-size: 18px;&quot;&gt;possui&lt;/font&gt;" style="rhombus;whiteSpace=wrap;html=1;" vertex="1" parent="1">
          <mxGeometry x="520" y="260" width="96" height="80" as="geometry" />
        </mxCell>
        <mxCell id="ku6dOrrAnNPvEK8YflBV-12" value="&lt;font style=&quot;font-size: 18px;&quot;&gt;1&lt;/font&gt;" style="text;html=1;strokeColor=none;fillColor=none;align=center;verticalAlign=middle;whiteSpace=wrap;rounded=0;" vertex="1" parent="1">
          <mxGeometry x="458" y="270" width="60" height="30" as="geometry" />
        </mxCell>
        <mxCell id="ku6dOrrAnNPvEK8YflBV-13" value="&lt;font style=&quot;font-size: 18px;&quot;&gt;N&lt;/font&gt;" style="text;html=1;strokeColor=none;fillColor=none;align=center;verticalAlign=middle;whiteSpace=wrap;rounded=0;" vertex="1" parent="1">
          <mxGeometry x="610" y="270" width="60" height="30" as="geometry" />
        </mxCell>
        <mxCell id="ku6dOrrAnNPvEK8YflBV-14" value="&lt;font style=&quot;font-size: 18px;&quot;&gt;1&lt;/font&gt;" style="text;html=1;strokeColor=none;fillColor=none;align=center;verticalAlign=middle;whiteSpace=wrap;rounded=0;" vertex="1" parent="1">
          <mxGeometry x="398" y="330" width="60" height="30" as="geometry" />
        </mxCell>
        <mxCell id="ku6dOrrAnNPvEK8YflBV-15" value="&lt;font style=&quot;font-size: 18px;&quot;&gt;N&lt;/font&gt;" style="text;html=1;strokeColor=none;fillColor=none;align=center;verticalAlign=middle;whiteSpace=wrap;rounded=0;" vertex="1" parent="1">
          <mxGeometry x="400" y="430" width="60" height="30" as="geometry" />
        </mxCell>
        <mxCell id="ku6dOrrAnNPvEK8YflBV-17" style="edgeStyle=orthogonalEdgeStyle;rounded=0;orthogonalLoop=1;jettySize=auto;html=1;entryX=0;entryY=0.5;entryDx=0;entryDy=0;endArrow=none;endFill=0;" edge="1" parent="1" source="ku6dOrrAnNPvEK8YflBV-16" target="ku6dOrrAnNPvEK8YflBV-2">
          <mxGeometry relative="1" as="geometry" />
        </mxCell>
        <mxCell id="ku6dOrrAnNPvEK8YflBV-16" value="&lt;font style=&quot;font-size: 18px;&quot;&gt;CNH&lt;/font&gt;" style="ellipse;whiteSpace=wrap;html=1;" vertex="1" parent="1">
          <mxGeometry x="210" y="285" width="100" height="30" as="geometry" />
        </mxCell>
      </root>
    </mxGraphModel>
  </diagram>
  <diagram id="OgdTNSOcZ_4yS4odIkTJ" name="Página-3">
    <mxGraphModel dx="1050" dy="581" grid="1" gridSize="10" guides="1" tooltips="1" connect="1" arrows="1" fold="1" page="1" pageScale="1" pageWidth="827" pageHeight="1169" math="0" shadow="0">
      <root>
        <mxCell id="0" />
        <mxCell id="1" parent="0" />
        <mxCell id="YntVklLO-c8_QqgRHOUB-1" value="&lt;font style=&quot;font-size: 18px;&quot;&gt;3-&lt;/font&gt;" style="text;html=1;strokeColor=none;fillColor=none;align=center;verticalAlign=middle;whiteSpace=wrap;rounded=0;" vertex="1" parent="1">
          <mxGeometry x="70" y="50" width="60" height="30" as="geometry" />
        </mxCell>
        <mxCell id="YntVklLO-c8_QqgRHOUB-2" value="&lt;font size=&quot;3&quot;&gt;Empresa&lt;/font&gt;" style="rounded=0;whiteSpace=wrap;html=1;" vertex="1" parent="1">
          <mxGeometry x="290" y="170" width="120" height="60" as="geometry" />
        </mxCell>
        <mxCell id="YntVklLO-c8_QqgRHOUB-3" value="&lt;font size=&quot;3&quot;&gt;Veiculo&lt;/font&gt;" style="rounded=0;whiteSpace=wrap;html=1;" vertex="1" parent="1">
          <mxGeometry x="290" y="370" width="120" height="60" as="geometry" />
        </mxCell>
        <mxCell id="YntVklLO-c8_QqgRHOUB-5" value="&lt;font style=&quot;font-size: 18px;&quot;&gt;Cliente&lt;/font&gt;" style="rounded=0;whiteSpace=wrap;html=1;" vertex="1" parent="1">
          <mxGeometry x="590" y="370" width="120" height="60" as="geometry" />
        </mxCell>
        <mxCell id="wyH3TX9ivKycoF74DeOx-3" style="edgeStyle=orthogonalEdgeStyle;rounded=0;orthogonalLoop=1;jettySize=auto;html=1;endArrow=none;endFill=0;" edge="1" parent="1" source="wyH3TX9ivKycoF74DeOx-1" target="YntVklLO-c8_QqgRHOUB-2">
          <mxGeometry relative="1" as="geometry" />
        </mxCell>
        <mxCell id="wyH3TX9ivKycoF74DeOx-4" style="edgeStyle=orthogonalEdgeStyle;rounded=0;orthogonalLoop=1;jettySize=auto;html=1;entryX=0.5;entryY=0;entryDx=0;entryDy=0;endArrow=none;endFill=0;" edge="1" parent="1" source="wyH3TX9ivKycoF74DeOx-1" target="YntVklLO-c8_QqgRHOUB-3">
          <mxGeometry relative="1" as="geometry" />
        </mxCell>
        <mxCell id="wyH3TX9ivKycoF74DeOx-1" value="&lt;font style=&quot;font-size: 18px;&quot;&gt;possui&lt;/font&gt;" style="rhombus;whiteSpace=wrap;html=1;" vertex="1" parent="1">
          <mxGeometry x="302" y="260" width="96" height="80" as="geometry" />
        </mxCell>
        <mxCell id="wyH3TX9ivKycoF74DeOx-5" style="edgeStyle=orthogonalEdgeStyle;rounded=0;orthogonalLoop=1;jettySize=auto;html=1;entryX=1;entryY=0.5;entryDx=0;entryDy=0;endArrow=none;endFill=0;" edge="1" parent="1" source="wyH3TX9ivKycoF74DeOx-2" target="YntVklLO-c8_QqgRHOUB-3">
          <mxGeometry relative="1" as="geometry" />
        </mxCell>
        <mxCell id="wyH3TX9ivKycoF74DeOx-6" style="edgeStyle=orthogonalEdgeStyle;rounded=0;orthogonalLoop=1;jettySize=auto;html=1;entryX=0;entryY=0.5;entryDx=0;entryDy=0;endArrow=none;endFill=0;" edge="1" parent="1" source="wyH3TX9ivKycoF74DeOx-2" target="YntVklLO-c8_QqgRHOUB-5">
          <mxGeometry relative="1" as="geometry" />
        </mxCell>
        <mxCell id="wyH3TX9ivKycoF74DeOx-2" value="&lt;span style=&quot;font-size: 18px;&quot;&gt;Aluga&lt;/span&gt;" style="rhombus;whiteSpace=wrap;html=1;" vertex="1" parent="1">
          <mxGeometry x="450" y="360" width="96" height="80" as="geometry" />
        </mxCell>
        <mxCell id="wyH3TX9ivKycoF74DeOx-8" style="edgeStyle=orthogonalEdgeStyle;rounded=0;orthogonalLoop=1;jettySize=auto;html=1;entryX=0;entryY=0.5;entryDx=0;entryDy=0;endArrow=none;endFill=0;" edge="1" parent="1" source="wyH3TX9ivKycoF74DeOx-7" target="YntVklLO-c8_QqgRHOUB-3">
          <mxGeometry relative="1" as="geometry">
            <Array as="points">
              <mxPoint x="260" y="370" />
              <mxPoint x="260" y="400" />
            </Array>
          </mxGeometry>
        </mxCell>
        <mxCell id="wyH3TX9ivKycoF74DeOx-7" value="&lt;font style=&quot;font-size: 18px;&quot;&gt;Marca&lt;/font&gt;" style="ellipse;whiteSpace=wrap;html=1;" vertex="1" parent="1">
          <mxGeometry x="120" y="350" width="100" height="40" as="geometry" />
        </mxCell>
        <mxCell id="wyH3TX9ivKycoF74DeOx-10" style="edgeStyle=orthogonalEdgeStyle;rounded=0;orthogonalLoop=1;jettySize=auto;html=1;endArrow=none;endFill=0;" edge="1" parent="1" source="wyH3TX9ivKycoF74DeOx-9">
          <mxGeometry relative="1" as="geometry">
            <mxPoint x="260" y="400" as="targetPoint" />
          </mxGeometry>
        </mxCell>
        <mxCell id="wyH3TX9ivKycoF74DeOx-9" value="&lt;font style=&quot;font-size: 18px;&quot;&gt;Modelo&lt;/font&gt;" style="ellipse;whiteSpace=wrap;html=1;" vertex="1" parent="1">
          <mxGeometry x="120" y="410" width="100" height="40" as="geometry" />
        </mxCell>
        <mxCell id="wyH3TX9ivKycoF74DeOx-12" style="edgeStyle=orthogonalEdgeStyle;rounded=0;orthogonalLoop=1;jettySize=auto;html=1;endArrow=none;endFill=0;" edge="1" parent="1" source="wyH3TX9ivKycoF74DeOx-11">
          <mxGeometry relative="1" as="geometry">
            <mxPoint x="260" y="430" as="targetPoint" />
          </mxGeometry>
        </mxCell>
        <mxCell id="wyH3TX9ivKycoF74DeOx-11" value="&lt;span style=&quot;font-size: 18px;&quot;&gt;Placa&lt;/span&gt;" style="ellipse;whiteSpace=wrap;html=1;" vertex="1" parent="1">
          <mxGeometry x="120" y="480" width="100" height="40" as="geometry" />
        </mxCell>
        <mxCell id="wyH3TX9ivKycoF74DeOx-16" style="edgeStyle=orthogonalEdgeStyle;rounded=0;orthogonalLoop=1;jettySize=auto;html=1;entryX=0.5;entryY=1;entryDx=0;entryDy=0;endArrow=none;endFill=0;" edge="1" parent="1" source="wyH3TX9ivKycoF74DeOx-13" target="YntVklLO-c8_QqgRHOUB-5">
          <mxGeometry relative="1" as="geometry" />
        </mxCell>
        <mxCell id="wyH3TX9ivKycoF74DeOx-13" value="&lt;span style=&quot;font-size: 18px;&quot;&gt;Nome&lt;/span&gt;" style="ellipse;whiteSpace=wrap;html=1;" vertex="1" parent="1">
          <mxGeometry x="530" y="490" width="100" height="40" as="geometry" />
        </mxCell>
        <mxCell id="wyH3TX9ivKycoF74DeOx-15" value="" style="edgeStyle=orthogonalEdgeStyle;rounded=0;orthogonalLoop=1;jettySize=auto;html=1;endArrow=none;endFill=0;" edge="1" parent="1" source="wyH3TX9ivKycoF74DeOx-14" target="YntVklLO-c8_QqgRHOUB-5">
          <mxGeometry relative="1" as="geometry" />
        </mxCell>
        <mxCell id="wyH3TX9ivKycoF74DeOx-14" value="&lt;span style=&quot;font-size: 18px;&quot;&gt;CPF&lt;/span&gt;" style="ellipse;whiteSpace=wrap;html=1;" vertex="1" parent="1">
          <mxGeometry x="660" y="490" width="100" height="40" as="geometry" />
        </mxCell>
        <mxCell id="pLgE31MPHQ-4-Muh8BfI-1" value="&lt;span style=&quot;font-size: 18px;&quot;&gt;N&lt;/span&gt;" style="text;html=1;strokeColor=none;fillColor=none;align=center;verticalAlign=middle;whiteSpace=wrap;rounded=0;" vertex="1" parent="1">
          <mxGeometry x="340" y="340" width="60" height="30" as="geometry" />
        </mxCell>
        <mxCell id="pLgE31MPHQ-4-Muh8BfI-2" value="&lt;font style=&quot;font-size: 18px;&quot;&gt;1&lt;/font&gt;" style="text;html=1;strokeColor=none;fillColor=none;align=center;verticalAlign=middle;whiteSpace=wrap;rounded=0;" vertex="1" parent="1">
          <mxGeometry x="340" y="230" width="60" height="30" as="geometry" />
        </mxCell>
        <mxCell id="pLgE31MPHQ-4-Muh8BfI-3" value="&lt;font style=&quot;font-size: 18px;&quot;&gt;1&lt;/font&gt;" style="text;html=1;strokeColor=none;fillColor=none;align=center;verticalAlign=middle;whiteSpace=wrap;rounded=0;" vertex="1" parent="1">
          <mxGeometry x="546" y="370" width="60" height="30" as="geometry" />
        </mxCell>
        <mxCell id="pLgE31MPHQ-4-Muh8BfI-4" value="&lt;span style=&quot;font-size: 18px;&quot;&gt;N&lt;/span&gt;" style="text;html=1;strokeColor=none;fillColor=none;align=center;verticalAlign=middle;whiteSpace=wrap;rounded=0;" vertex="1" parent="1">
          <mxGeometry x="398" y="370" width="60" height="30" as="geometry" />
        </mxCell>
      </root>
    </mxGraphModel>
  </diagram>
  <diagram id="8YutBoujCdLm11SBtmCs" name="Página-4">
    <mxGraphModel dx="1050" dy="581" grid="1" gridSize="10" guides="1" tooltips="1" connect="1" arrows="1" fold="1" page="1" pageScale="1" pageWidth="827" pageHeight="1169" math="0" shadow="0">
      <root>
        <mxCell id="0" />
        <mxCell id="1" parent="0" />
        <mxCell id="GTa5dhn23Rj4dR_XFO8p-1" value="&lt;font style=&quot;font-size: 18px;&quot;&gt;4-&lt;/font&gt;" style="text;html=1;strokeColor=none;fillColor=none;align=center;verticalAlign=middle;whiteSpace=wrap;rounded=0;" vertex="1" parent="1">
          <mxGeometry x="60" y="40" width="60" height="30" as="geometry" />
        </mxCell>
        <mxCell id="kurrCw6sytjHcHAsXAf1-1" value="&lt;font size=&quot;3&quot;&gt;Clinica&lt;/font&gt;" style="rounded=0;whiteSpace=wrap;html=1;" vertex="1" parent="1">
          <mxGeometry x="120" y="95" width="120" height="60" as="geometry" />
        </mxCell>
        <mxCell id="kurrCw6sytjHcHAsXAf1-16" style="edgeStyle=orthogonalEdgeStyle;rounded=0;orthogonalLoop=1;jettySize=auto;html=1;entryX=0.5;entryY=0;entryDx=0;entryDy=0;endArrow=none;endFill=0;" edge="1" parent="1" source="kurrCw6sytjHcHAsXAf1-5" target="kurrCw6sytjHcHAsXAf1-15">
          <mxGeometry relative="1" as="geometry" />
        </mxCell>
        <mxCell id="kurrCw6sytjHcHAsXAf1-5" value="&lt;font size=&quot;3&quot;&gt;Pet&lt;/font&gt;" style="rounded=0;whiteSpace=wrap;html=1;" vertex="1" parent="1">
          <mxGeometry x="470" y="360" width="120" height="60" as="geometry" />
        </mxCell>
        <mxCell id="kurrCw6sytjHcHAsXAf1-13" style="edgeStyle=orthogonalEdgeStyle;rounded=0;orthogonalLoop=1;jettySize=auto;html=1;entryX=0.5;entryY=0;entryDx=0;entryDy=0;endArrow=none;endFill=0;" edge="1" parent="1" source="kurrCw6sytjHcHAsXAf1-6" target="kurrCw6sytjHcHAsXAf1-10">
          <mxGeometry relative="1" as="geometry" />
        </mxCell>
        <mxCell id="kurrCw6sytjHcHAsXAf1-6" value="&lt;font size=&quot;3&quot;&gt;Veterinário&lt;/font&gt;" style="rounded=0;whiteSpace=wrap;html=1;" vertex="1" parent="1">
          <mxGeometry x="470" y="95" width="120" height="60" as="geometry" />
        </mxCell>
        <mxCell id="kurrCw6sytjHcHAsXAf1-8" value="&lt;font size=&quot;3&quot;&gt;Dono&lt;/font&gt;" style="rounded=0;whiteSpace=wrap;html=1;" vertex="1" parent="1">
          <mxGeometry x="470" y="620" width="120" height="60" as="geometry" />
        </mxCell>
        <mxCell id="kurrCw6sytjHcHAsXAf1-11" style="edgeStyle=orthogonalEdgeStyle;rounded=0;orthogonalLoop=1;jettySize=auto;html=1;entryX=0;entryY=0.5;entryDx=0;entryDy=0;endArrow=none;endFill=0;" edge="1" parent="1" source="kurrCw6sytjHcHAsXAf1-9" target="kurrCw6sytjHcHAsXAf1-6">
          <mxGeometry relative="1" as="geometry" />
        </mxCell>
        <mxCell id="kurrCw6sytjHcHAsXAf1-12" style="edgeStyle=orthogonalEdgeStyle;rounded=0;orthogonalLoop=1;jettySize=auto;html=1;entryX=1;entryY=0.5;entryDx=0;entryDy=0;endArrow=none;endFill=0;" edge="1" parent="1" source="kurrCw6sytjHcHAsXAf1-9" target="kurrCw6sytjHcHAsXAf1-1">
          <mxGeometry relative="1" as="geometry" />
        </mxCell>
        <mxCell id="kurrCw6sytjHcHAsXAf1-9" value="&lt;font style=&quot;font-size: 18px;&quot;&gt;Cadastra&lt;/font&gt;" style="rhombus;whiteSpace=wrap;html=1;" vertex="1" parent="1">
          <mxGeometry x="300" y="90" width="100" height="70" as="geometry" />
        </mxCell>
        <mxCell id="kurrCw6sytjHcHAsXAf1-14" style="edgeStyle=orthogonalEdgeStyle;rounded=0;orthogonalLoop=1;jettySize=auto;html=1;entryX=0.5;entryY=0;entryDx=0;entryDy=0;endArrow=none;endFill=0;" edge="1" parent="1" source="kurrCw6sytjHcHAsXAf1-10" target="kurrCw6sytjHcHAsXAf1-5">
          <mxGeometry relative="1" as="geometry" />
        </mxCell>
        <mxCell id="kurrCw6sytjHcHAsXAf1-10" value="&lt;span style=&quot;font-size: 18px;&quot;&gt;Atende&lt;/span&gt;" style="rhombus;whiteSpace=wrap;html=1;" vertex="1" parent="1">
          <mxGeometry x="480" y="210" width="100" height="70" as="geometry" />
        </mxCell>
        <mxCell id="kurrCw6sytjHcHAsXAf1-17" style="edgeStyle=orthogonalEdgeStyle;rounded=0;orthogonalLoop=1;jettySize=auto;html=1;endArrow=none;endFill=0;" edge="1" parent="1" source="kurrCw6sytjHcHAsXAf1-15" target="kurrCw6sytjHcHAsXAf1-8">
          <mxGeometry relative="1" as="geometry" />
        </mxCell>
        <mxCell id="kurrCw6sytjHcHAsXAf1-15" value="&lt;span style=&quot;font-size: 18px;&quot;&gt;Possui&lt;/span&gt;" style="rhombus;whiteSpace=wrap;html=1;" vertex="1" parent="1">
          <mxGeometry x="480" y="480" width="100" height="70" as="geometry" />
        </mxCell>
        <mxCell id="3sGQXfQValETNnjllo1k-8" style="edgeStyle=orthogonalEdgeStyle;shape=connector;rounded=0;orthogonalLoop=1;jettySize=auto;html=1;labelBackgroundColor=default;strokeColor=default;fontFamily=Helvetica;fontSize=11;fontColor=default;endArrow=none;endFill=0;" edge="1" parent="1" source="3sGQXfQValETNnjllo1k-3">
          <mxGeometry relative="1" as="geometry">
            <mxPoint x="650" y="270" as="targetPoint" />
          </mxGeometry>
        </mxCell>
        <mxCell id="3sGQXfQValETNnjllo1k-3" value="&lt;span style=&quot;font-size: 18px;&quot;&gt;Nome&lt;/span&gt;" style="ellipse;whiteSpace=wrap;html=1;" vertex="1" parent="1">
          <mxGeometry x="670" y="200" width="100" height="40" as="geometry" />
        </mxCell>
        <mxCell id="3sGQXfQValETNnjllo1k-6" style="edgeStyle=orthogonalEdgeStyle;rounded=0;orthogonalLoop=1;jettySize=auto;html=1;entryX=1;entryY=0.5;entryDx=0;entryDy=0;endArrow=none;endFill=0;" edge="1" parent="1" source="3sGQXfQValETNnjllo1k-4" target="kurrCw6sytjHcHAsXAf1-5">
          <mxGeometry relative="1" as="geometry">
            <Array as="points">
              <mxPoint x="630" y="270" />
              <mxPoint x="630" y="320" />
              <mxPoint x="590" y="320" />
            </Array>
          </mxGeometry>
        </mxCell>
        <mxCell id="3sGQXfQValETNnjllo1k-4" value="&lt;font style=&quot;font-size: 14px;&quot;&gt;Data nascimento&lt;/font&gt;" style="ellipse;whiteSpace=wrap;html=1;" vertex="1" parent="1">
          <mxGeometry x="670" y="250" width="100" height="40" as="geometry" />
        </mxCell>
        <mxCell id="3sGQXfQValETNnjllo1k-11" value="&lt;font size=&quot;3&quot;&gt;Raça&lt;/font&gt;" style="rounded=0;whiteSpace=wrap;html=1;" vertex="1" parent="1">
          <mxGeometry x="120" y="360" width="120" height="60" as="geometry" />
        </mxCell>
        <mxCell id="3sGQXfQValETNnjllo1k-13" style="edgeStyle=orthogonalEdgeStyle;shape=connector;rounded=0;orthogonalLoop=1;jettySize=auto;html=1;entryX=1;entryY=0.5;entryDx=0;entryDy=0;labelBackgroundColor=default;strokeColor=default;fontFamily=Helvetica;fontSize=11;fontColor=default;endArrow=none;endFill=0;" edge="1" parent="1" source="3sGQXfQValETNnjllo1k-12" target="3sGQXfQValETNnjllo1k-11">
          <mxGeometry relative="1" as="geometry" />
        </mxCell>
        <mxCell id="3sGQXfQValETNnjllo1k-14" style="edgeStyle=orthogonalEdgeStyle;shape=connector;rounded=0;orthogonalLoop=1;jettySize=auto;html=1;entryX=0;entryY=0.5;entryDx=0;entryDy=0;labelBackgroundColor=default;strokeColor=default;fontFamily=Helvetica;fontSize=11;fontColor=default;endArrow=none;endFill=0;" edge="1" parent="1" source="3sGQXfQValETNnjllo1k-12" target="kurrCw6sytjHcHAsXAf1-5">
          <mxGeometry relative="1" as="geometry" />
        </mxCell>
        <mxCell id="3sGQXfQValETNnjllo1k-12" value="&lt;span style=&quot;font-size: 18px;&quot;&gt;possui&lt;/span&gt;" style="rhombus;whiteSpace=wrap;html=1;" vertex="1" parent="1">
          <mxGeometry x="300" y="355" width="100" height="70" as="geometry" />
        </mxCell>
        <mxCell id="SGf5JMiM87hGbXb8_9aP-1" value="&lt;font style=&quot;font-size: 18px;&quot;&gt;1&lt;/font&gt;" style="text;html=1;strokeColor=none;fillColor=none;align=center;verticalAlign=middle;whiteSpace=wrap;rounded=0;" vertex="1" parent="1">
          <mxGeometry x="220" y="95" width="60" height="30" as="geometry" />
        </mxCell>
        <mxCell id="SGf5JMiM87hGbXb8_9aP-2" value="&lt;span style=&quot;font-size: 18px;&quot;&gt;N&lt;/span&gt;" style="text;html=1;strokeColor=none;fillColor=none;align=center;verticalAlign=middle;whiteSpace=wrap;rounded=0;" vertex="1" parent="1">
          <mxGeometry x="430" y="95" width="60" height="30" as="geometry" />
        </mxCell>
        <mxCell id="SGf5JMiM87hGbXb8_9aP-3" value="&lt;font style=&quot;font-size: 18px;&quot;&gt;1&lt;/font&gt;" style="text;html=1;strokeColor=none;fillColor=none;align=center;verticalAlign=middle;whiteSpace=wrap;rounded=0;" vertex="1" parent="1">
          <mxGeometry x="510" y="155" width="60" height="30" as="geometry" />
        </mxCell>
        <mxCell id="SGf5JMiM87hGbXb8_9aP-4" value="&lt;span style=&quot;font-size: 18px;&quot;&gt;N&lt;/span&gt;" style="text;html=1;strokeColor=none;fillColor=none;align=center;verticalAlign=middle;whiteSpace=wrap;rounded=0;" vertex="1" parent="1">
          <mxGeometry x="520" y="330" width="60" height="30" as="geometry" />
        </mxCell>
        <mxCell id="SGf5JMiM87hGbXb8_9aP-5" value="&lt;font style=&quot;font-size: 18px;&quot;&gt;1&lt;/font&gt;" style="text;html=1;strokeColor=none;fillColor=none;align=center;verticalAlign=middle;whiteSpace=wrap;rounded=0;" vertex="1" parent="1">
          <mxGeometry x="510" y="590" width="60" height="30" as="geometry" />
        </mxCell>
        <mxCell id="SGf5JMiM87hGbXb8_9aP-6" value="&lt;span style=&quot;font-size: 18px;&quot;&gt;N&lt;/span&gt;" style="text;html=1;strokeColor=none;fillColor=none;align=center;verticalAlign=middle;whiteSpace=wrap;rounded=0;" vertex="1" parent="1">
          <mxGeometry x="510" y="420" width="60" height="30" as="geometry" />
        </mxCell>
        <mxCell id="SGf5JMiM87hGbXb8_9aP-7" value="&lt;font style=&quot;font-size: 18px;&quot;&gt;1&lt;/font&gt;" style="text;html=1;strokeColor=none;fillColor=none;align=center;verticalAlign=middle;whiteSpace=wrap;rounded=0;" vertex="1" parent="1">
          <mxGeometry x="220" y="390" width="60" height="30" as="geometry" />
        </mxCell>
        <mxCell id="SGf5JMiM87hGbXb8_9aP-8" value="&lt;span style=&quot;font-size: 18px;&quot;&gt;N&lt;/span&gt;" style="text;html=1;strokeColor=none;fillColor=none;align=center;verticalAlign=middle;whiteSpace=wrap;rounded=0;" vertex="1" parent="1">
          <mxGeometry x="430" y="390" width="60" height="30" as="geometry" />
        </mxCell>
        <mxCell id="rX3phZvapHLQUKs4_47E-2" value="&lt;font size=&quot;3&quot;&gt;Tipo&lt;/font&gt;" style="rounded=0;whiteSpace=wrap;html=1;" vertex="1" parent="1">
          <mxGeometry x="750" y="360" width="120" height="60" as="geometry" />
        </mxCell>
        <mxCell id="rX3phZvapHLQUKs4_47E-4" style="edgeStyle=orthogonalEdgeStyle;shape=connector;rounded=0;orthogonalLoop=1;jettySize=auto;html=1;labelBackgroundColor=default;strokeColor=default;fontFamily=Helvetica;fontSize=11;fontColor=default;endArrow=none;endFill=0;" edge="1" parent="1" source="rX3phZvapHLQUKs4_47E-3">
          <mxGeometry relative="1" as="geometry">
            <mxPoint x="590" y="390" as="targetPoint" />
          </mxGeometry>
        </mxCell>
        <mxCell id="rX3phZvapHLQUKs4_47E-5" style="edgeStyle=orthogonalEdgeStyle;shape=connector;rounded=0;orthogonalLoop=1;jettySize=auto;html=1;entryX=0;entryY=0.5;entryDx=0;entryDy=0;labelBackgroundColor=default;strokeColor=default;fontFamily=Helvetica;fontSize=11;fontColor=default;endArrow=none;endFill=0;" edge="1" parent="1" source="rX3phZvapHLQUKs4_47E-3" target="rX3phZvapHLQUKs4_47E-2">
          <mxGeometry relative="1" as="geometry" />
        </mxCell>
        <mxCell id="rX3phZvapHLQUKs4_47E-3" value="&lt;span style=&quot;font-size: 18px;&quot;&gt;Possui&lt;/span&gt;" style="rhombus;whiteSpace=wrap;html=1;" vertex="1" parent="1">
          <mxGeometry x="620" y="355" width="100" height="70" as="geometry" />
        </mxCell>
        <mxCell id="rX3phZvapHLQUKs4_47E-6" value="&lt;span style=&quot;font-size: 18px;&quot;&gt;N&lt;/span&gt;" style="text;html=1;strokeColor=none;fillColor=none;align=center;verticalAlign=middle;whiteSpace=wrap;rounded=0;" vertex="1" parent="1">
          <mxGeometry x="580" y="390" width="60" height="30" as="geometry" />
        </mxCell>
        <mxCell id="rX3phZvapHLQUKs4_47E-7" value="&lt;span style=&quot;font-size: 18px;&quot;&gt;1&lt;br&gt;&lt;/span&gt;" style="text;html=1;strokeColor=none;fillColor=none;align=center;verticalAlign=middle;whiteSpace=wrap;rounded=0;" vertex="1" parent="1">
          <mxGeometry x="710" y="390" width="60" height="30" as="geometry" />
        </mxCell>
        <mxCell id="rX3phZvapHLQUKs4_47E-8" value="&lt;font size=&quot;3&quot;&gt;endereço&lt;/font&gt;" style="rounded=0;whiteSpace=wrap;html=1;" vertex="1" parent="1">
          <mxGeometry x="120" y="270" width="120" height="60" as="geometry" />
        </mxCell>
        <mxCell id="rX3phZvapHLQUKs4_47E-10" style="edgeStyle=orthogonalEdgeStyle;shape=connector;rounded=0;orthogonalLoop=1;jettySize=auto;html=1;entryX=0.5;entryY=0;entryDx=0;entryDy=0;labelBackgroundColor=default;strokeColor=default;fontFamily=Helvetica;fontSize=11;fontColor=default;endArrow=none;endFill=0;" edge="1" parent="1" source="rX3phZvapHLQUKs4_47E-9" target="rX3phZvapHLQUKs4_47E-8">
          <mxGeometry relative="1" as="geometry" />
        </mxCell>
        <mxCell id="rX3phZvapHLQUKs4_47E-11" style="edgeStyle=orthogonalEdgeStyle;shape=connector;rounded=0;orthogonalLoop=1;jettySize=auto;html=1;entryX=0.5;entryY=1;entryDx=0;entryDy=0;labelBackgroundColor=default;strokeColor=default;fontFamily=Helvetica;fontSize=11;fontColor=default;endArrow=none;endFill=0;" edge="1" parent="1" source="rX3phZvapHLQUKs4_47E-9" target="kurrCw6sytjHcHAsXAf1-1">
          <mxGeometry relative="1" as="geometry" />
        </mxCell>
        <mxCell id="rX3phZvapHLQUKs4_47E-9" value="&lt;span style=&quot;font-size: 18px;&quot;&gt;possui&lt;/span&gt;" style="rhombus;whiteSpace=wrap;html=1;" vertex="1" parent="1">
          <mxGeometry x="130" y="180" width="100" height="70" as="geometry" />
        </mxCell>
        <mxCell id="rX3phZvapHLQUKs4_47E-12" value="&lt;font style=&quot;font-size: 18px;&quot;&gt;1&lt;/font&gt;" style="text;html=1;strokeColor=none;fillColor=none;align=center;verticalAlign=middle;whiteSpace=wrap;rounded=0;" vertex="1" parent="1">
          <mxGeometry x="170" y="155" width="60" height="30" as="geometry" />
        </mxCell>
        <mxCell id="rX3phZvapHLQUKs4_47E-13" value="&lt;font style=&quot;font-size: 18px;&quot;&gt;1&lt;/font&gt;" style="text;html=1;strokeColor=none;fillColor=none;align=center;verticalAlign=middle;whiteSpace=wrap;rounded=0;" vertex="1" parent="1">
          <mxGeometry x="180" y="240" width="60" height="30" as="geometry" />
        </mxCell>
      </root>
    </mxGraphModel>
  </diagram>
  <diagram id="wCUD9OenRfWzVCG8g1c4" name="Página-5">
    <mxGraphModel dx="1050" dy="581" grid="1" gridSize="10" guides="1" tooltips="1" connect="1" arrows="1" fold="1" page="1" pageScale="1" pageWidth="827" pageHeight="1169" math="0" shadow="0">
      <root>
        <mxCell id="0" />
        <mxCell id="1" parent="0" />
        <mxCell id="oyTRR7kWmFhyfIIDJirm-1" value="&lt;font style=&quot;font-size: 18px;&quot;&gt;5-&lt;/font&gt;" style="text;html=1;strokeColor=none;fillColor=none;align=center;verticalAlign=middle;whiteSpace=wrap;rounded=0;" vertex="1" parent="1">
          <mxGeometry x="60" y="50" width="60" height="30" as="geometry" />
        </mxCell>
        <mxCell id="SOnR-2fXC7e5wPDzBks1-1" value="&lt;font size=&quot;3&quot;&gt;Usuario&lt;/font&gt;" style="rounded=0;whiteSpace=wrap;html=1;" vertex="1" parent="1">
          <mxGeometry x="150" y="160" width="120" height="60" as="geometry" />
        </mxCell>
        <mxCell id="SOnR-2fXC7e5wPDzBks1-2" value="&lt;font size=&quot;3&quot;&gt;Artista&lt;/font&gt;" style="rounded=0;whiteSpace=wrap;html=1;" vertex="1" parent="1">
          <mxGeometry x="300" y="160" width="120" height="60" as="geometry" />
        </mxCell>
        <mxCell id="SOnR-2fXC7e5wPDzBks1-3" value="&lt;font size=&quot;3&quot;&gt;Estilos&lt;/font&gt;" style="rounded=0;whiteSpace=wrap;html=1;" vertex="1" parent="1">
          <mxGeometry x="300" y="570" width="120" height="60" as="geometry" />
        </mxCell>
        <mxCell id="SOnR-2fXC7e5wPDzBks1-4" value="&lt;font size=&quot;3&quot;&gt;Album&lt;/font&gt;" style="rounded=0;whiteSpace=wrap;html=1;" vertex="1" parent="1">
          <mxGeometry x="300" y="360" width="120" height="60" as="geometry" />
        </mxCell>
        <mxCell id="GSRcZfFJQZT9JtDMO-Ov-3" style="edgeStyle=orthogonalEdgeStyle;shape=connector;rounded=0;orthogonalLoop=1;jettySize=auto;html=1;entryX=0.5;entryY=1;entryDx=0;entryDy=0;labelBackgroundColor=default;strokeColor=default;fontFamily=Helvetica;fontSize=11;fontColor=default;endArrow=none;endFill=0;" edge="1" parent="1" source="GSRcZfFJQZT9JtDMO-Ov-1" target="SOnR-2fXC7e5wPDzBks1-2">
          <mxGeometry relative="1" as="geometry" />
        </mxCell>
        <mxCell id="GSRcZfFJQZT9JtDMO-Ov-4" style="edgeStyle=orthogonalEdgeStyle;shape=connector;rounded=0;orthogonalLoop=1;jettySize=auto;html=1;entryX=0.5;entryY=0;entryDx=0;entryDy=0;labelBackgroundColor=default;strokeColor=default;fontFamily=Helvetica;fontSize=11;fontColor=default;endArrow=none;endFill=0;" edge="1" parent="1" source="GSRcZfFJQZT9JtDMO-Ov-1" target="SOnR-2fXC7e5wPDzBks1-4">
          <mxGeometry relative="1" as="geometry" />
        </mxCell>
        <mxCell id="GSRcZfFJQZT9JtDMO-Ov-1" value="&lt;span style=&quot;font-size: 18px;&quot;&gt;possui&lt;/span&gt;" style="rhombus;whiteSpace=wrap;html=1;" vertex="1" parent="1">
          <mxGeometry x="310" y="250" width="100" height="70" as="geometry" />
        </mxCell>
        <mxCell id="GSRcZfFJQZT9JtDMO-Ov-5" style="edgeStyle=orthogonalEdgeStyle;shape=connector;rounded=0;orthogonalLoop=1;jettySize=auto;html=1;entryX=0.5;entryY=1;entryDx=0;entryDy=0;labelBackgroundColor=default;strokeColor=default;fontFamily=Helvetica;fontSize=11;fontColor=default;endArrow=none;endFill=0;" edge="1" parent="1" source="GSRcZfFJQZT9JtDMO-Ov-2" target="SOnR-2fXC7e5wPDzBks1-4">
          <mxGeometry relative="1" as="geometry" />
        </mxCell>
        <mxCell id="GSRcZfFJQZT9JtDMO-Ov-6" style="edgeStyle=orthogonalEdgeStyle;shape=connector;rounded=0;orthogonalLoop=1;jettySize=auto;html=1;entryX=0.5;entryY=0;entryDx=0;entryDy=0;labelBackgroundColor=default;strokeColor=default;fontFamily=Helvetica;fontSize=11;fontColor=default;endArrow=none;endFill=0;" edge="1" parent="1" source="GSRcZfFJQZT9JtDMO-Ov-2" target="SOnR-2fXC7e5wPDzBks1-3">
          <mxGeometry relative="1" as="geometry" />
        </mxCell>
        <mxCell id="GSRcZfFJQZT9JtDMO-Ov-2" value="&lt;span style=&quot;font-size: 18px;&quot;&gt;possui&lt;/span&gt;" style="rhombus;whiteSpace=wrap;html=1;" vertex="1" parent="1">
          <mxGeometry x="310" y="460" width="100" height="70" as="geometry" />
        </mxCell>
        <mxCell id="s-a34JaI-hTolNTnfp4E-2" style="edgeStyle=orthogonalEdgeStyle;shape=connector;rounded=0;orthogonalLoop=1;jettySize=auto;html=1;entryX=1;entryY=0.5;entryDx=0;entryDy=0;labelBackgroundColor=default;strokeColor=default;fontFamily=Helvetica;fontSize=11;fontColor=default;endArrow=none;endFill=0;" edge="1" parent="1" source="s-a34JaI-hTolNTnfp4E-1" target="SOnR-2fXC7e5wPDzBks1-2">
          <mxGeometry relative="1" as="geometry" />
        </mxCell>
        <mxCell id="s-a34JaI-hTolNTnfp4E-1" value="&lt;span style=&quot;font-size: 18px;&quot;&gt;nome&lt;/span&gt;" style="ellipse;whiteSpace=wrap;html=1;" vertex="1" parent="1">
          <mxGeometry x="490" y="170" width="100" height="40" as="geometry" />
        </mxCell>
        <mxCell id="s-a34JaI-hTolNTnfp4E-4" style="edgeStyle=orthogonalEdgeStyle;shape=connector;rounded=0;orthogonalLoop=1;jettySize=auto;html=1;entryX=1;entryY=0.5;entryDx=0;entryDy=0;labelBackgroundColor=default;strokeColor=default;fontFamily=Helvetica;fontSize=11;fontColor=default;endArrow=none;endFill=0;" edge="1" parent="1" source="s-a34JaI-hTolNTnfp4E-3" target="SOnR-2fXC7e5wPDzBks1-3">
          <mxGeometry relative="1" as="geometry" />
        </mxCell>
        <mxCell id="s-a34JaI-hTolNTnfp4E-3" value="&lt;span style=&quot;font-size: 18px;&quot;&gt;nome&lt;/span&gt;" style="ellipse;whiteSpace=wrap;html=1;" vertex="1" parent="1">
          <mxGeometry x="490" y="580" width="100" height="40" as="geometry" />
        </mxCell>
        <mxCell id="s-a34JaI-hTolNTnfp4E-10" style="edgeStyle=orthogonalEdgeStyle;shape=connector;rounded=0;orthogonalLoop=1;jettySize=auto;html=1;entryX=1;entryY=0.5;entryDx=0;entryDy=0;labelBackgroundColor=default;strokeColor=default;fontFamily=Helvetica;fontSize=11;fontColor=default;endArrow=none;endFill=0;" edge="1" parent="1" source="s-a34JaI-hTolNTnfp4E-5" target="SOnR-2fXC7e5wPDzBks1-4">
          <mxGeometry relative="1" as="geometry" />
        </mxCell>
        <mxCell id="s-a34JaI-hTolNTnfp4E-5" value="&lt;span style=&quot;font-size: 18px;&quot;&gt;titulo&lt;/span&gt;" style="ellipse;whiteSpace=wrap;html=1;" vertex="1" parent="1">
          <mxGeometry x="520" y="290" width="100" height="40" as="geometry" />
        </mxCell>
        <mxCell id="s-a34JaI-hTolNTnfp4E-11" style="edgeStyle=orthogonalEdgeStyle;shape=connector;rounded=0;orthogonalLoop=1;jettySize=auto;html=1;labelBackgroundColor=default;strokeColor=default;fontFamily=Helvetica;fontSize=11;fontColor=default;endArrow=none;endFill=0;" edge="1" parent="1" source="s-a34JaI-hTolNTnfp4E-6">
          <mxGeometry relative="1" as="geometry">
            <mxPoint x="470" y="360" as="targetPoint" />
          </mxGeometry>
        </mxCell>
        <mxCell id="s-a34JaI-hTolNTnfp4E-6" value="&lt;font style=&quot;font-size: 14px;&quot;&gt;data lançamento&lt;/font&gt;" style="ellipse;whiteSpace=wrap;html=1;" vertex="1" parent="1">
          <mxGeometry x="520" y="340" width="100" height="40" as="geometry" />
        </mxCell>
        <mxCell id="s-a34JaI-hTolNTnfp4E-12" style="edgeStyle=orthogonalEdgeStyle;shape=connector;rounded=0;orthogonalLoop=1;jettySize=auto;html=1;labelBackgroundColor=default;strokeColor=default;fontFamily=Helvetica;fontSize=11;fontColor=default;endArrow=none;endFill=0;" edge="1" parent="1" source="s-a34JaI-hTolNTnfp4E-7">
          <mxGeometry relative="1" as="geometry">
            <mxPoint x="470" y="390" as="targetPoint" />
            <Array as="points">
              <mxPoint x="470" y="410" />
            </Array>
          </mxGeometry>
        </mxCell>
        <mxCell id="s-a34JaI-hTolNTnfp4E-7" value="&lt;span style=&quot;font-size: 18px;&quot;&gt;local&lt;/span&gt;" style="ellipse;whiteSpace=wrap;html=1;" vertex="1" parent="1">
          <mxGeometry x="520" y="390" width="100" height="40" as="geometry" />
        </mxCell>
        <mxCell id="s-a34JaI-hTolNTnfp4E-13" style="edgeStyle=orthogonalEdgeStyle;shape=connector;rounded=0;orthogonalLoop=1;jettySize=auto;html=1;labelBackgroundColor=default;strokeColor=default;fontFamily=Helvetica;fontSize=11;fontColor=default;endArrow=none;endFill=0;" edge="1" parent="1" source="s-a34JaI-hTolNTnfp4E-8">
          <mxGeometry relative="1" as="geometry">
            <mxPoint x="470" y="410" as="targetPoint" />
          </mxGeometry>
        </mxCell>
        <mxCell id="s-a34JaI-hTolNTnfp4E-8" value="&lt;span style=&quot;font-size: 18px;&quot;&gt;duração&lt;/span&gt;" style="ellipse;whiteSpace=wrap;html=1;" vertex="1" parent="1">
          <mxGeometry x="520" y="440" width="100" height="40" as="geometry" />
        </mxCell>
        <mxCell id="s-a34JaI-hTolNTnfp4E-14" style="edgeStyle=orthogonalEdgeStyle;shape=connector;rounded=0;orthogonalLoop=1;jettySize=auto;html=1;labelBackgroundColor=default;strokeColor=default;fontFamily=Helvetica;fontSize=11;fontColor=default;endArrow=none;endFill=0;" edge="1" parent="1" source="s-a34JaI-hTolNTnfp4E-9">
          <mxGeometry relative="1" as="geometry">
            <mxPoint x="470" y="460" as="targetPoint" />
          </mxGeometry>
        </mxCell>
        <mxCell id="s-a34JaI-hTolNTnfp4E-9" value="&lt;font style=&quot;font-size: 14px;&quot;&gt;visualização&lt;/font&gt;" style="ellipse;whiteSpace=wrap;html=1;" vertex="1" parent="1">
          <mxGeometry x="520" y="490" width="100" height="40" as="geometry" />
        </mxCell>
        <mxCell id="s-a34JaI-hTolNTnfp4E-20" style="edgeStyle=orthogonalEdgeStyle;shape=connector;rounded=0;orthogonalLoop=1;jettySize=auto;html=1;entryX=0;entryY=0.5;entryDx=0;entryDy=0;labelBackgroundColor=default;strokeColor=default;fontFamily=Helvetica;fontSize=11;fontColor=default;endArrow=none;endFill=0;" edge="1" parent="1" source="s-a34JaI-hTolNTnfp4E-15" target="SOnR-2fXC7e5wPDzBks1-1">
          <mxGeometry relative="1" as="geometry" />
        </mxCell>
        <mxCell id="s-a34JaI-hTolNTnfp4E-15" value="&lt;span style=&quot;font-size: 18px;&quot;&gt;nome&lt;/span&gt;" style="ellipse;whiteSpace=wrap;html=1;" vertex="1" parent="1">
          <mxGeometry x="20" y="130" width="100" height="40" as="geometry" />
        </mxCell>
        <mxCell id="s-a34JaI-hTolNTnfp4E-21" style="edgeStyle=orthogonalEdgeStyle;shape=connector;rounded=0;orthogonalLoop=1;jettySize=auto;html=1;labelBackgroundColor=default;strokeColor=default;fontFamily=Helvetica;fontSize=11;fontColor=default;endArrow=none;endFill=0;" edge="1" parent="1" source="s-a34JaI-hTolNTnfp4E-17">
          <mxGeometry relative="1" as="geometry">
            <mxPoint x="140" y="190" as="targetPoint" />
          </mxGeometry>
        </mxCell>
        <mxCell id="s-a34JaI-hTolNTnfp4E-17" value="&lt;span style=&quot;font-size: 18px;&quot;&gt;senha&lt;/span&gt;" style="ellipse;whiteSpace=wrap;html=1;" vertex="1" parent="1">
          <mxGeometry x="20" y="180" width="100" height="40" as="geometry" />
        </mxCell>
        <mxCell id="s-a34JaI-hTolNTnfp4E-22" style="edgeStyle=orthogonalEdgeStyle;shape=connector;rounded=0;orthogonalLoop=1;jettySize=auto;html=1;labelBackgroundColor=default;strokeColor=default;fontFamily=Helvetica;fontSize=11;fontColor=default;endArrow=none;endFill=0;" edge="1" parent="1" source="s-a34JaI-hTolNTnfp4E-18">
          <mxGeometry relative="1" as="geometry">
            <mxPoint x="140" y="200" as="targetPoint" />
          </mxGeometry>
        </mxCell>
        <mxCell id="s-a34JaI-hTolNTnfp4E-18" value="&lt;span style=&quot;font-size: 18px;&quot;&gt;email&lt;/span&gt;" style="ellipse;whiteSpace=wrap;html=1;" vertex="1" parent="1">
          <mxGeometry x="20" y="230" width="100" height="40" as="geometry" />
        </mxCell>
        <mxCell id="s-a34JaI-hTolNTnfp4E-23" style="edgeStyle=orthogonalEdgeStyle;shape=connector;rounded=0;orthogonalLoop=1;jettySize=auto;html=1;labelBackgroundColor=default;strokeColor=default;fontFamily=Helvetica;fontSize=11;fontColor=default;endArrow=none;endFill=0;" edge="1" parent="1" source="s-a34JaI-hTolNTnfp4E-19">
          <mxGeometry relative="1" as="geometry">
            <mxPoint x="140" y="250" as="targetPoint" />
          </mxGeometry>
        </mxCell>
        <mxCell id="s-a34JaI-hTolNTnfp4E-19" value="&lt;span style=&quot;font-size: 18px;&quot;&gt;permissão&lt;/span&gt;" style="ellipse;whiteSpace=wrap;html=1;" vertex="1" parent="1">
          <mxGeometry x="20" y="280" width="100" height="40" as="geometry" />
        </mxCell>
        <mxCell id="u_ur6RQeehbN3mWPeXf3-1" value="&lt;font style=&quot;font-size: 18px;&quot;&gt;1&lt;/font&gt;" style="text;html=1;strokeColor=none;fillColor=none;align=center;verticalAlign=middle;whiteSpace=wrap;rounded=0;" vertex="1" parent="1">
          <mxGeometry x="350" y="220" width="60" height="30" as="geometry" />
        </mxCell>
        <mxCell id="u_ur6RQeehbN3mWPeXf3-2" value="&lt;span style=&quot;font-size: 18px;&quot;&gt;N&lt;/span&gt;" style="text;html=1;strokeColor=none;fillColor=none;align=center;verticalAlign=middle;whiteSpace=wrap;rounded=0;" vertex="1" parent="1">
          <mxGeometry x="350" y="330" width="60" height="30" as="geometry" />
        </mxCell>
        <mxCell id="u_ur6RQeehbN3mWPeXf3-3" value="&lt;span style=&quot;font-size: 18px;&quot;&gt;N&lt;/span&gt;" style="text;html=1;strokeColor=none;fillColor=none;align=center;verticalAlign=middle;whiteSpace=wrap;rounded=0;" vertex="1" parent="1">
          <mxGeometry x="354" y="540" width="60" height="30" as="geometry" />
        </mxCell>
        <mxCell id="u_ur6RQeehbN3mWPeXf3-4" value="&lt;font style=&quot;font-size: 18px;&quot;&gt;1&lt;/font&gt;" style="text;html=1;strokeColor=none;fillColor=none;align=center;verticalAlign=middle;whiteSpace=wrap;rounded=0;" vertex="1" parent="1">
          <mxGeometry x="354" y="420" width="60" height="30" as="geometry" />
        </mxCell>
      </root>
    </mxGraphModel>
  </diagram>
  <diagram id="2fl53VqsHoWU1LqgPnG6" name="Página-6">
    <mxGraphModel dx="1050" dy="581" grid="1" gridSize="10" guides="1" tooltips="1" connect="1" arrows="1" fold="1" page="1" pageScale="1" pageWidth="827" pageHeight="1169" math="0" shadow="0">
      <root>
        <mxCell id="0" />
        <mxCell id="1" parent="0" />
        <mxCell id="aN8KIkHuUeL-fD9CpKIM-1" value="&lt;font style=&quot;font-size: 18px;&quot;&gt;6-&lt;/font&gt;" style="text;html=1;strokeColor=none;fillColor=none;align=center;verticalAlign=middle;whiteSpace=wrap;rounded=0;" vertex="1" parent="1">
          <mxGeometry x="50" y="30" width="60" height="30" as="geometry" />
        </mxCell>
        <mxCell id="JNM2dhRNWthyfycOzq02-1" value="&lt;font size=&quot;3&quot;&gt;loja&lt;/font&gt;" style="rounded=0;whiteSpace=wrap;html=1;" vertex="1" parent="1">
          <mxGeometry x="190" y="90" width="120" height="60" as="geometry" />
        </mxCell>
        <mxCell id="JNM2dhRNWthyfycOzq02-2" value="&lt;font size=&quot;3&quot;&gt;categoria&lt;/font&gt;" style="rounded=0;whiteSpace=wrap;html=1;" vertex="1" parent="1">
          <mxGeometry x="190" y="310" width="120" height="60" as="geometry" />
        </mxCell>
        <mxCell id="JNM2dhRNWthyfycOzq02-3" value="&lt;font size=&quot;3&quot;&gt;subcategoria&lt;/font&gt;" style="rounded=0;whiteSpace=wrap;html=1;" vertex="1" parent="1">
          <mxGeometry x="190" y="500" width="120" height="60" as="geometry" />
        </mxCell>
        <mxCell id="JNM2dhRNWthyfycOzq02-4" value="&lt;font size=&quot;3&quot;&gt;cliente&lt;/font&gt;" style="rounded=0;whiteSpace=wrap;html=1;" vertex="1" parent="1">
          <mxGeometry x="510" y="90" width="120" height="60" as="geometry" />
        </mxCell>
        <mxCell id="JNM2dhRNWthyfycOzq02-5" value="&lt;font size=&quot;3&quot;&gt;pedido&lt;/font&gt;" style="rounded=0;whiteSpace=wrap;html=1;" vertex="1" parent="1">
          <mxGeometry x="510" y="310" width="120" height="60" as="geometry" />
        </mxCell>
        <mxCell id="RbDQyDj51DuULQ2RzX80-1" value="&lt;font size=&quot;3&quot;&gt;produto&lt;/font&gt;" style="rounded=0;whiteSpace=wrap;html=1;" vertex="1" parent="1">
          <mxGeometry x="510" y="500" width="120" height="60" as="geometry" />
        </mxCell>
        <mxCell id="tWJtyGzPdKDXRroq8-mt-2" style="edgeStyle=orthogonalEdgeStyle;shape=connector;rounded=0;orthogonalLoop=1;jettySize=auto;html=1;entryX=0.5;entryY=1;entryDx=0;entryDy=0;labelBackgroundColor=default;strokeColor=default;fontFamily=Helvetica;fontSize=11;fontColor=default;endArrow=none;endFill=0;" edge="1" parent="1" source="tWJtyGzPdKDXRroq8-mt-1" target="JNM2dhRNWthyfycOzq02-1">
          <mxGeometry relative="1" as="geometry" />
        </mxCell>
        <mxCell id="tWJtyGzPdKDXRroq8-mt-3" style="edgeStyle=orthogonalEdgeStyle;shape=connector;rounded=0;orthogonalLoop=1;jettySize=auto;html=1;entryX=0.5;entryY=0;entryDx=0;entryDy=0;labelBackgroundColor=default;strokeColor=default;fontFamily=Helvetica;fontSize=11;fontColor=default;endArrow=none;endFill=0;" edge="1" parent="1" source="tWJtyGzPdKDXRroq8-mt-1" target="JNM2dhRNWthyfycOzq02-2">
          <mxGeometry relative="1" as="geometry" />
        </mxCell>
        <mxCell id="tWJtyGzPdKDXRroq8-mt-1" value="&lt;span style=&quot;font-size: 18px;&quot;&gt;possui&lt;/span&gt;" style="rhombus;whiteSpace=wrap;html=1;" vertex="1" parent="1">
          <mxGeometry x="200" y="190" width="100" height="70" as="geometry" />
        </mxCell>
        <mxCell id="tWJtyGzPdKDXRroq8-mt-5" style="edgeStyle=orthogonalEdgeStyle;shape=connector;rounded=0;orthogonalLoop=1;jettySize=auto;html=1;entryX=0.5;entryY=1;entryDx=0;entryDy=0;labelBackgroundColor=default;strokeColor=default;fontFamily=Helvetica;fontSize=11;fontColor=default;endArrow=none;endFill=0;" edge="1" parent="1" source="tWJtyGzPdKDXRroq8-mt-4" target="JNM2dhRNWthyfycOzq02-2">
          <mxGeometry relative="1" as="geometry" />
        </mxCell>
        <mxCell id="tWJtyGzPdKDXRroq8-mt-6" style="edgeStyle=orthogonalEdgeStyle;shape=connector;rounded=0;orthogonalLoop=1;jettySize=auto;html=1;entryX=0.5;entryY=0;entryDx=0;entryDy=0;labelBackgroundColor=default;strokeColor=default;fontFamily=Helvetica;fontSize=11;fontColor=default;endArrow=none;endFill=0;" edge="1" parent="1" source="tWJtyGzPdKDXRroq8-mt-4" target="JNM2dhRNWthyfycOzq02-3">
          <mxGeometry relative="1" as="geometry" />
        </mxCell>
        <mxCell id="tWJtyGzPdKDXRroq8-mt-4" value="&lt;span style=&quot;font-size: 18px;&quot;&gt;possui&lt;/span&gt;" style="rhombus;whiteSpace=wrap;html=1;" vertex="1" parent="1">
          <mxGeometry x="200" y="400" width="100" height="70" as="geometry" />
        </mxCell>
        <mxCell id="tWJtyGzPdKDXRroq8-mt-8" style="edgeStyle=orthogonalEdgeStyle;shape=connector;rounded=0;orthogonalLoop=1;jettySize=auto;html=1;entryX=1;entryY=0.5;entryDx=0;entryDy=0;labelBackgroundColor=default;strokeColor=default;fontFamily=Helvetica;fontSize=11;fontColor=default;endArrow=none;endFill=0;" edge="1" parent="1" source="tWJtyGzPdKDXRroq8-mt-7" target="JNM2dhRNWthyfycOzq02-3">
          <mxGeometry relative="1" as="geometry" />
        </mxCell>
        <mxCell id="tWJtyGzPdKDXRroq8-mt-9" style="edgeStyle=orthogonalEdgeStyle;shape=connector;rounded=0;orthogonalLoop=1;jettySize=auto;html=1;entryX=0;entryY=0.5;entryDx=0;entryDy=0;labelBackgroundColor=default;strokeColor=default;fontFamily=Helvetica;fontSize=11;fontColor=default;endArrow=none;endFill=0;" edge="1" parent="1" source="tWJtyGzPdKDXRroq8-mt-7" target="RbDQyDj51DuULQ2RzX80-1">
          <mxGeometry relative="1" as="geometry" />
        </mxCell>
        <mxCell id="tWJtyGzPdKDXRroq8-mt-7" value="&lt;span style=&quot;font-size: 18px;&quot;&gt;possui&lt;/span&gt;" style="rhombus;whiteSpace=wrap;html=1;" vertex="1" parent="1">
          <mxGeometry x="360" y="495" width="100" height="70" as="geometry" />
        </mxCell>
        <mxCell id="tWJtyGzPdKDXRroq8-mt-11" style="edgeStyle=orthogonalEdgeStyle;shape=connector;rounded=0;orthogonalLoop=1;jettySize=auto;html=1;entryX=0.5;entryY=1;entryDx=0;entryDy=0;labelBackgroundColor=default;strokeColor=default;fontFamily=Helvetica;fontSize=11;fontColor=default;endArrow=none;endFill=0;" edge="1" parent="1" source="tWJtyGzPdKDXRroq8-mt-10" target="JNM2dhRNWthyfycOzq02-5">
          <mxGeometry relative="1" as="geometry" />
        </mxCell>
        <mxCell id="tWJtyGzPdKDXRroq8-mt-12" style="edgeStyle=orthogonalEdgeStyle;shape=connector;rounded=0;orthogonalLoop=1;jettySize=auto;html=1;entryX=0.5;entryY=0;entryDx=0;entryDy=0;labelBackgroundColor=default;strokeColor=default;fontFamily=Helvetica;fontSize=11;fontColor=default;endArrow=none;endFill=0;" edge="1" parent="1" source="tWJtyGzPdKDXRroq8-mt-10" target="RbDQyDj51DuULQ2RzX80-1">
          <mxGeometry relative="1" as="geometry" />
        </mxCell>
        <mxCell id="tWJtyGzPdKDXRroq8-mt-10" value="&lt;span style=&quot;font-size: 18px;&quot;&gt;possui&lt;/span&gt;" style="rhombus;whiteSpace=wrap;html=1;" vertex="1" parent="1">
          <mxGeometry x="520" y="400" width="100" height="70" as="geometry" />
        </mxCell>
        <mxCell id="tWJtyGzPdKDXRroq8-mt-14" style="edgeStyle=orthogonalEdgeStyle;shape=connector;rounded=0;orthogonalLoop=1;jettySize=auto;html=1;entryX=0.5;entryY=1;entryDx=0;entryDy=0;labelBackgroundColor=default;strokeColor=default;fontFamily=Helvetica;fontSize=11;fontColor=default;endArrow=none;endFill=0;" edge="1" parent="1" source="tWJtyGzPdKDXRroq8-mt-13" target="JNM2dhRNWthyfycOzq02-4">
          <mxGeometry relative="1" as="geometry" />
        </mxCell>
        <mxCell id="tWJtyGzPdKDXRroq8-mt-15" style="edgeStyle=orthogonalEdgeStyle;shape=connector;rounded=0;orthogonalLoop=1;jettySize=auto;html=1;entryX=0.5;entryY=0;entryDx=0;entryDy=0;labelBackgroundColor=default;strokeColor=default;fontFamily=Helvetica;fontSize=11;fontColor=default;endArrow=none;endFill=0;" edge="1" parent="1" source="tWJtyGzPdKDXRroq8-mt-13" target="JNM2dhRNWthyfycOzq02-5">
          <mxGeometry relative="1" as="geometry" />
        </mxCell>
        <mxCell id="tWJtyGzPdKDXRroq8-mt-13" value="&lt;span style=&quot;font-size: 18px;&quot;&gt;Faz&lt;/span&gt;" style="rhombus;whiteSpace=wrap;html=1;" vertex="1" parent="1">
          <mxGeometry x="520" y="190" width="100" height="70" as="geometry" />
        </mxCell>
        <mxCell id="zVP88VeCIPhUK8G9K8Bh-1" value="&lt;font style=&quot;font-size: 18px;&quot;&gt;1&lt;/font&gt;" style="text;html=1;strokeColor=none;fillColor=none;align=center;verticalAlign=middle;whiteSpace=wrap;rounded=0;" vertex="1" parent="1">
          <mxGeometry x="240" y="150" width="60" height="30" as="geometry" />
        </mxCell>
        <mxCell id="zVP88VeCIPhUK8G9K8Bh-2" value="&lt;span style=&quot;font-size: 18px;&quot;&gt;N&lt;/span&gt;" style="text;html=1;strokeColor=none;fillColor=none;align=center;verticalAlign=middle;whiteSpace=wrap;rounded=0;" vertex="1" parent="1">
          <mxGeometry x="240" y="280" width="60" height="30" as="geometry" />
        </mxCell>
        <mxCell id="zVP88VeCIPhUK8G9K8Bh-3" value="&lt;font style=&quot;font-size: 18px;&quot;&gt;1&lt;/font&gt;" style="text;html=1;strokeColor=none;fillColor=none;align=center;verticalAlign=middle;whiteSpace=wrap;rounded=0;" vertex="1" parent="1">
          <mxGeometry x="240" y="370" width="60" height="30" as="geometry" />
        </mxCell>
        <mxCell id="zVP88VeCIPhUK8G9K8Bh-4" value="&lt;span style=&quot;font-size: 18px;&quot;&gt;N&lt;/span&gt;" style="text;html=1;strokeColor=none;fillColor=none;align=center;verticalAlign=middle;whiteSpace=wrap;rounded=0;" vertex="1" parent="1">
          <mxGeometry x="240" y="470" width="60" height="30" as="geometry" />
        </mxCell>
        <mxCell id="zVP88VeCIPhUK8G9K8Bh-5" value="&lt;font style=&quot;font-size: 18px;&quot;&gt;1&lt;/font&gt;" style="text;html=1;strokeColor=none;fillColor=none;align=center;verticalAlign=middle;whiteSpace=wrap;rounded=0;" vertex="1" parent="1">
          <mxGeometry x="300" y="500" width="60" height="30" as="geometry" />
        </mxCell>
        <mxCell id="zVP88VeCIPhUK8G9K8Bh-6" value="&lt;span style=&quot;font-size: 18px;&quot;&gt;N&lt;/span&gt;" style="text;html=1;strokeColor=none;fillColor=none;align=center;verticalAlign=middle;whiteSpace=wrap;rounded=0;" vertex="1" parent="1">
          <mxGeometry x="470" y="500" width="60" height="30" as="geometry" />
        </mxCell>
        <mxCell id="zVP88VeCIPhUK8G9K8Bh-7" value="&lt;font style=&quot;font-size: 18px;&quot;&gt;1&lt;/font&gt;" style="text;html=1;strokeColor=none;fillColor=none;align=center;verticalAlign=middle;whiteSpace=wrap;rounded=0;" vertex="1" parent="1">
          <mxGeometry x="560" y="370" width="60" height="30" as="geometry" />
        </mxCell>
        <mxCell id="zVP88VeCIPhUK8G9K8Bh-8" value="&lt;span style=&quot;font-size: 18px;&quot;&gt;N&lt;/span&gt;" style="text;html=1;strokeColor=none;fillColor=none;align=center;verticalAlign=middle;whiteSpace=wrap;rounded=0;" vertex="1" parent="1">
          <mxGeometry x="560" y="470" width="60" height="30" as="geometry" />
        </mxCell>
        <mxCell id="tTdj6rw7d0VhLgugGD0y-1" value="&lt;font style=&quot;font-size: 18px;&quot;&gt;1&lt;/font&gt;" style="text;html=1;strokeColor=none;fillColor=none;align=center;verticalAlign=middle;whiteSpace=wrap;rounded=0;" vertex="1" parent="1">
          <mxGeometry x="550" y="150" width="60" height="30" as="geometry" />
        </mxCell>
        <mxCell id="tTdj6rw7d0VhLgugGD0y-2" value="&lt;font style=&quot;font-size: 18px;&quot;&gt;1&lt;/font&gt;" style="text;html=1;strokeColor=none;fillColor=none;align=center;verticalAlign=middle;whiteSpace=wrap;rounded=0;" vertex="1" parent="1">
          <mxGeometry x="550" y="280" width="60" height="30" as="geometry" />
        </mxCell>
        <mxCell id="kTqRPfN4JgpNpqG3eYOc-1" style="edgeStyle=orthogonalEdgeStyle;shape=connector;rounded=0;orthogonalLoop=1;jettySize=auto;html=1;entryX=1;entryY=0.5;entryDx=0;entryDy=0;labelBackgroundColor=default;strokeColor=default;fontFamily=Helvetica;fontSize=11;fontColor=default;endArrow=none;endFill=0;" edge="1" parent="1" source="3MS3Hs3ShDkCfFi4ZYAy-1" target="JNM2dhRNWthyfycOzq02-4">
          <mxGeometry relative="1" as="geometry" />
        </mxCell>
        <mxCell id="3MS3Hs3ShDkCfFi4ZYAy-1" value="&lt;span style=&quot;font-size: 18px;&quot;&gt;nome&lt;/span&gt;" style="ellipse;whiteSpace=wrap;html=1;" vertex="1" parent="1">
          <mxGeometry x="710" y="100" width="100" height="40" as="geometry" />
        </mxCell>
      </root>
    </mxGraphModel>
  </diagram>
  <diagram id="ejFRwBrrSHb253c0DAjK" name="Página-7">
    <mxGraphModel dx="1050" dy="581" grid="1" gridSize="10" guides="1" tooltips="1" connect="1" arrows="1" fold="1" page="1" pageScale="1" pageWidth="827" pageHeight="1169" math="0" shadow="0">
      <root>
        <mxCell id="0" />
        <mxCell id="1" parent="0" />
        <mxCell id="JlWOgnkUhQP3oKTB3VY3-1" value="&lt;font style=&quot;font-size: 18px;&quot;&gt;7-&lt;/font&gt;" style="text;html=1;strokeColor=none;fillColor=none;align=center;verticalAlign=middle;whiteSpace=wrap;rounded=0;" vertex="1" parent="1">
          <mxGeometry x="50" y="40" width="60" height="30" as="geometry" />
        </mxCell>
        <mxCell id="6BxnN6M9wnBhvlrDTjxO-1" value="&lt;font size=&quot;3&quot;&gt;cliente&lt;/font&gt;" style="rounded=0;whiteSpace=wrap;html=1;" vertex="1" parent="1">
          <mxGeometry x="140" y="110" width="120" height="60" as="geometry" />
        </mxCell>
        <mxCell id="6BxnN6M9wnBhvlrDTjxO-2" value="&lt;font size=&quot;3&quot;&gt;equipamento&lt;/font&gt;" style="rounded=0;whiteSpace=wrap;html=1;" vertex="1" parent="1">
          <mxGeometry x="140" y="310" width="120" height="60" as="geometry" />
        </mxCell>
        <mxCell id="OpYVS5Vpx29kK0TUybgf-1" value="&lt;font size=&quot;3&quot;&gt;colaboradores&lt;/font&gt;" style="rounded=0;whiteSpace=wrap;html=1;" vertex="1" parent="1">
          <mxGeometry x="470" y="310" width="120" height="60" as="geometry" />
        </mxCell>
        <mxCell id="OpYVS5Vpx29kK0TUybgf-2" value="&lt;font size=&quot;3&quot;&gt;conserto&lt;/font&gt;" style="rounded=0;whiteSpace=wrap;html=1;" vertex="1" parent="1">
          <mxGeometry x="470" y="110" width="120" height="60" as="geometry" />
        </mxCell>
        <mxCell id="-EeWCaAMMGVvd7RWVK0X-5" style="edgeStyle=orthogonalEdgeStyle;shape=connector;rounded=0;orthogonalLoop=1;jettySize=auto;html=1;entryX=0.5;entryY=1;entryDx=0;entryDy=0;labelBackgroundColor=default;strokeColor=default;fontFamily=Helvetica;fontSize=11;fontColor=default;endArrow=none;endFill=0;" edge="1" parent="1" source="-EeWCaAMMGVvd7RWVK0X-1" target="6BxnN6M9wnBhvlrDTjxO-1">
          <mxGeometry relative="1" as="geometry" />
        </mxCell>
        <mxCell id="-EeWCaAMMGVvd7RWVK0X-6" style="edgeStyle=orthogonalEdgeStyle;shape=connector;rounded=0;orthogonalLoop=1;jettySize=auto;html=1;entryX=0.5;entryY=0;entryDx=0;entryDy=0;labelBackgroundColor=default;strokeColor=default;fontFamily=Helvetica;fontSize=11;fontColor=default;endArrow=none;endFill=0;" edge="1" parent="1" source="-EeWCaAMMGVvd7RWVK0X-1" target="6BxnN6M9wnBhvlrDTjxO-2">
          <mxGeometry relative="1" as="geometry" />
        </mxCell>
        <mxCell id="-EeWCaAMMGVvd7RWVK0X-1" value="&lt;span style=&quot;font-size: 18px;&quot;&gt;possui&lt;/span&gt;" style="rhombus;whiteSpace=wrap;html=1;" vertex="1" parent="1">
          <mxGeometry x="150" y="210" width="100" height="70" as="geometry" />
        </mxCell>
        <mxCell id="-EeWCaAMMGVvd7RWVK0X-7" style="edgeStyle=orthogonalEdgeStyle;shape=connector;rounded=0;orthogonalLoop=1;jettySize=auto;html=1;entryX=1;entryY=0.5;entryDx=0;entryDy=0;labelBackgroundColor=default;strokeColor=default;fontFamily=Helvetica;fontSize=11;fontColor=default;endArrow=none;endFill=0;" edge="1" parent="1" source="-EeWCaAMMGVvd7RWVK0X-2" target="6BxnN6M9wnBhvlrDTjxO-2">
          <mxGeometry relative="1" as="geometry" />
        </mxCell>
        <mxCell id="-EeWCaAMMGVvd7RWVK0X-8" style="edgeStyle=orthogonalEdgeStyle;shape=connector;rounded=0;orthogonalLoop=1;jettySize=auto;html=1;entryX=0;entryY=0.5;entryDx=0;entryDy=0;labelBackgroundColor=default;strokeColor=default;fontFamily=Helvetica;fontSize=11;fontColor=default;endArrow=none;endFill=0;" edge="1" parent="1" source="-EeWCaAMMGVvd7RWVK0X-2" target="OpYVS5Vpx29kK0TUybgf-1">
          <mxGeometry relative="1" as="geometry" />
        </mxCell>
        <mxCell id="-EeWCaAMMGVvd7RWVK0X-2" value="&lt;span style=&quot;font-size: 18px;&quot;&gt;repara&lt;/span&gt;" style="rhombus;whiteSpace=wrap;html=1;" vertex="1" parent="1">
          <mxGeometry x="310" y="305" width="100" height="70" as="geometry" />
        </mxCell>
        <mxCell id="-EeWCaAMMGVvd7RWVK0X-9" style="edgeStyle=orthogonalEdgeStyle;shape=connector;rounded=0;orthogonalLoop=1;jettySize=auto;html=1;entryX=0.5;entryY=0;entryDx=0;entryDy=0;labelBackgroundColor=default;strokeColor=default;fontFamily=Helvetica;fontSize=11;fontColor=default;endArrow=none;endFill=0;" edge="1" parent="1" source="-EeWCaAMMGVvd7RWVK0X-3" target="OpYVS5Vpx29kK0TUybgf-1">
          <mxGeometry relative="1" as="geometry" />
        </mxCell>
        <mxCell id="-EeWCaAMMGVvd7RWVK0X-10" style="edgeStyle=orthogonalEdgeStyle;shape=connector;rounded=0;orthogonalLoop=1;jettySize=auto;html=1;entryX=0.5;entryY=1;entryDx=0;entryDy=0;labelBackgroundColor=default;strokeColor=default;fontFamily=Helvetica;fontSize=11;fontColor=default;endArrow=none;endFill=0;" edge="1" parent="1" source="-EeWCaAMMGVvd7RWVK0X-3" target="OpYVS5Vpx29kK0TUybgf-2">
          <mxGeometry relative="1" as="geometry" />
        </mxCell>
        <mxCell id="-EeWCaAMMGVvd7RWVK0X-3" value="&lt;span style=&quot;font-size: 18px;&quot;&gt;encerrar&lt;/span&gt;" style="rhombus;whiteSpace=wrap;html=1;" vertex="1" parent="1">
          <mxGeometry x="480" y="200" width="100" height="70" as="geometry" />
        </mxCell>
        <mxCell id="-EeWCaAMMGVvd7RWVK0X-12" style="edgeStyle=orthogonalEdgeStyle;shape=connector;rounded=0;orthogonalLoop=1;jettySize=auto;html=1;entryX=0;entryY=0.5;entryDx=0;entryDy=0;labelBackgroundColor=default;strokeColor=default;fontFamily=Helvetica;fontSize=11;fontColor=default;endArrow=none;endFill=0;" edge="1" parent="1" source="-EeWCaAMMGVvd7RWVK0X-4" target="OpYVS5Vpx29kK0TUybgf-2">
          <mxGeometry relative="1" as="geometry" />
        </mxCell>
        <mxCell id="-EeWCaAMMGVvd7RWVK0X-13" style="edgeStyle=orthogonalEdgeStyle;shape=connector;rounded=0;orthogonalLoop=1;jettySize=auto;html=1;entryX=1;entryY=0.5;entryDx=0;entryDy=0;labelBackgroundColor=default;strokeColor=default;fontFamily=Helvetica;fontSize=11;fontColor=default;endArrow=none;endFill=0;" edge="1" parent="1" source="-EeWCaAMMGVvd7RWVK0X-4" target="6BxnN6M9wnBhvlrDTjxO-1">
          <mxGeometry relative="1" as="geometry" />
        </mxCell>
        <mxCell id="-EeWCaAMMGVvd7RWVK0X-4" value="&lt;span style=&quot;font-size: 18px;&quot;&gt;verificar&lt;/span&gt;" style="rhombus;whiteSpace=wrap;html=1;" vertex="1" parent="1">
          <mxGeometry x="313.5" y="105" width="100" height="70" as="geometry" />
        </mxCell>
        <mxCell id="xduShcfRMnucZ1uTx7N2-1" value="&lt;font style=&quot;font-size: 18px;&quot;&gt;1&lt;/font&gt;" style="text;html=1;strokeColor=none;fillColor=none;align=center;verticalAlign=middle;whiteSpace=wrap;rounded=0;" vertex="1" parent="1">
          <mxGeometry x="190" y="170" width="60" height="30" as="geometry" />
        </mxCell>
        <mxCell id="xduShcfRMnucZ1uTx7N2-2" value="&lt;span style=&quot;font-size: 18px;&quot;&gt;1&lt;/span&gt;" style="text;html=1;strokeColor=none;fillColor=none;align=center;verticalAlign=middle;whiteSpace=wrap;rounded=0;" vertex="1" parent="1">
          <mxGeometry x="190" y="280" width="60" height="30" as="geometry" />
        </mxCell>
        <mxCell id="xduShcfRMnucZ1uTx7N2-3" value="&lt;font style=&quot;font-size: 18px;&quot;&gt;1&lt;/font&gt;" style="text;html=1;strokeColor=none;fillColor=none;align=center;verticalAlign=middle;whiteSpace=wrap;rounded=0;" vertex="1" parent="1">
          <mxGeometry x="250" y="310" width="60" height="30" as="geometry" />
        </mxCell>
        <mxCell id="xduShcfRMnucZ1uTx7N2-4" value="&lt;span style=&quot;font-size: 18px;&quot;&gt;N&lt;/span&gt;" style="text;html=1;strokeColor=none;fillColor=none;align=center;verticalAlign=middle;whiteSpace=wrap;rounded=0;" vertex="1" parent="1">
          <mxGeometry x="420" y="310" width="60" height="30" as="geometry" />
        </mxCell>
        <mxCell id="xduShcfRMnucZ1uTx7N2-5" value="&lt;span style=&quot;font-size: 18px;&quot;&gt;N&lt;/span&gt;" style="text;html=1;strokeColor=none;fillColor=none;align=center;verticalAlign=middle;whiteSpace=wrap;rounded=0;" vertex="1" parent="1">
          <mxGeometry x="520" y="280" width="60" height="30" as="geometry" />
        </mxCell>
        <mxCell id="xduShcfRMnucZ1uTx7N2-6" value="&lt;span style=&quot;font-size: 18px;&quot;&gt;N&lt;/span&gt;" style="text;html=1;strokeColor=none;fillColor=none;align=center;verticalAlign=middle;whiteSpace=wrap;rounded=0;" vertex="1" parent="1">
          <mxGeometry x="520" y="170" width="60" height="30" as="geometry" />
        </mxCell>
        <mxCell id="xduShcfRMnucZ1uTx7N2-7" value="&lt;font style=&quot;font-size: 18px;&quot;&gt;1&lt;/font&gt;" style="text;html=1;strokeColor=none;fillColor=none;align=center;verticalAlign=middle;whiteSpace=wrap;rounded=0;" vertex="1" parent="1">
          <mxGeometry x="250" y="110" width="60" height="30" as="geometry" />
        </mxCell>
        <mxCell id="xduShcfRMnucZ1uTx7N2-8" value="&lt;span style=&quot;font-size: 18px;&quot;&gt;N&lt;/span&gt;" style="text;html=1;strokeColor=none;fillColor=none;align=center;verticalAlign=middle;whiteSpace=wrap;rounded=0;" vertex="1" parent="1">
          <mxGeometry x="430" y="110" width="60" height="30" as="geometry" />
        </mxCell>
      </root>
    </mxGraphModel>
  </diagram>
</mxfile>
